<svg width="24" height="24" viewBox="0 0 24 24" fill="none" xmlns="http://www.w3.org/2000/svg">
<path d="M7.48337 5.25947C6.33894 5.38738 5.42289 6.29062 5.29048 7.42273C4.93479 10.4639 4.93479 13.5361 5.29048 16.5773C5.42289 17.7094 6.33894 18.6126 7.48337 18.7405C10.4602 19.0732 13.5398 19.0732 16.5167 18.7405C17.6611 18.6126 18.5771 17.7094 18.7095 16.5773C18.9651 14.3921 19.0371 12.1909 18.9254 9.99673C18.9225 9.94007 18.9436 9.8848 18.9838 9.84468L20.0225 8.80591C20.1428 8.68567 20.3482 8.76085 20.361 8.93041C20.557 11.5353 20.5032 14.1543 20.1994 16.7515C19.9845 18.5885 18.5096 20.0271 16.6833 20.2312C13.5957 20.5763 10.4043 20.5763 7.31676 20.2312C5.49038 20.0271 4.01548 18.5885 3.80064 16.7515C3.4314 13.5946 3.4314 10.4054 3.80064 7.24848C4.01548 5.41152 5.49038 3.97288 7.31676 3.76875C10.4043 3.42367 13.5957 3.42367 16.6833 3.76875C17.3265 3.84064 17.9262 4.06567 18.4425 4.40731C18.5441 4.47453 18.5542 4.61737 18.4681 4.70352L17.6652 5.5064C17.5995 5.57208 17.4976 5.58312 17.4158 5.53926C17.1424 5.39276 16.8386 5.29545 16.5167 5.25947C13.5398 4.92676 10.4602 4.92676 7.48337 5.25947Z" fill="black"/>
<path d="M21.0303 6.03033C21.3232 5.73744 21.3232 5.26256 21.0303 4.96967C20.7374 4.67678 20.2626 4.67678 19.9697 4.96967L11.5 13.4393L9.03033 10.9697C8.73744 10.6768 8.26256 10.6768 7.96967 10.9697C7.67678 11.2626 7.67678 11.7374 7.96967 12.0303L10.9697 15.0303C11.2626 15.3232 11.7374 15.3232 12.0303 15.0303L21.0303 6.03033Z" fill="black"/>
</svg>
