<svg width="28" height="30" viewBox="0 0 28 30" fill="none" xmlns="http://www.w3.org/2000/svg">
<path d="M20.2862 10.9982L20.5999 11.6482L21.0982 11.1261C21.3876 10.8228 21.7512 10.592 22.1761 10.4782C23.4221 10.1443 24.6991 10.8805 25.0302 12.116L26.4903 17.5651C27.6259 21.8033 25.0865 26.1841 20.8249 27.326L15.3522 28.7924C13.0804 29.4011 10.6135 28.903 8.76113 27.4552L8.76109 27.4551L1.71158 21.9464C1.38254 21.6891 1.16536 21.3448 1.06546 20.972C0.791681 19.9502 1.42388 18.9589 2.38182 18.7022C2.93112 18.555 3.53615 18.6576 4.0132 19.0317L4.01371 19.0321L8.34226 22.4168L9.52024 23.3379L9.13321 21.8935L4.22519 3.57648C3.96307 2.59821 4.54148 1.57589 5.59487 1.29363C6.53147 1.04267 7.55395 1.6209 7.81986 2.61329L10.0778 11.0401L10.3677 12.1218L10.9795 11.1839C11.2862 10.7139 11.7491 10.3519 12.3249 10.1976C13.4146 9.90564 14.5066 10.4473 15.0343 11.4511L15.6075 12.5413L15.9564 11.36C16.1801 10.6028 16.772 9.97943 17.5849 9.76161C18.6871 9.46627 19.8097 10.011 20.2862 10.9982Z" stroke="black"/>
</svg>
