<svg width="17" height="17" viewBox="0 0 17 17" fill="none" xmlns="http://www.w3.org/2000/svg">
<path fill-rule="evenodd" clip-rule="evenodd" d="M2.5 5.17157C2.77614 5.17157 3 5.39543 3 5.67157V13.6716C3 14.5 3.67157 15.1716 4.5 15.1716H5.92857V9.94935C5.92857 9.67321 6.15243 9.44935 6.42857 9.44935H10.5714C10.8476 9.44935 11.0714 9.67321 11.0714 9.94935V15.1716H12.5C13.3284 15.1716 14 14.5 14 13.6716V5.67157C14 5.39543 14.2239 5.17157 14.5 5.17157C14.7761 5.17157 15 5.39543 15 5.67157V13.6716C15 15.0523 13.8807 16.1716 12.5 16.1716H10.5714C10.2953 16.1716 10.0714 15.9477 10.0714 15.6716V10.4493H6.92857V15.6716C6.92857 15.9477 6.70471 16.1716 6.42857 16.1716H4.5C3.11929 16.1716 2 15.0523 2 13.6716V5.67157C2 5.39543 2.22386 5.17157 2.5 5.17157Z" fill="white"/>
<path fill-rule="evenodd" clip-rule="evenodd" d="M9.56066 1.43934C8.97487 0.853554 8.02513 0.853553 7.43934 1.43934L0.853553 8.02513C0.658291 8.22039 0.341709 8.22039 0.146447 8.02513C-0.0488155 7.82986 -0.0488155 7.51328 0.146447 7.31802L6.73223 0.732232C7.70855 -0.244079 9.29146 -0.244077 10.2678 0.732234L16.8536 7.31802C17.0488 7.51328 17.0488 7.82986 16.8536 8.02513C16.6583 8.22039 16.3417 8.22039 16.1464 8.02513L9.56066 1.43934Z" fill="white"/>
</svg>
