<svg width="18" height="18" viewBox="0 0 18 18" fill="none" xmlns="http://www.w3.org/2000/svg">
<path d="M9.5 3.75C9.5 3.33579 9.16421 3 8.75 3C8.33579 3 8 3.33579 8 3.75V8.75C8 9.00859 8.13321 9.24895 8.3525 9.386L11.3525 11.261C11.7038 11.4805 12.1665 11.3738 12.386 11.0225C12.6055 10.6712 12.4988 10.2085 12.1475 9.989L9.5 8.33431V3.75Z" fill="black"/>
<path fill-rule="evenodd" clip-rule="evenodd" d="M8.75 0C3.91751 0 0 3.91751 0 8.75C0 13.5825 3.91751 17.5 8.75 17.5C13.5825 17.5 17.5 13.5825 17.5 8.75C17.5 3.91751 13.5825 0 8.75 0ZM1.5 8.75C1.5 4.74594 4.74594 1.5 8.75 1.5C12.7541 1.5 16 4.74594 16 8.75C16 12.7541 12.7541 16 8.75 16C4.74594 16 1.5 12.7541 1.5 8.75Z" fill="black"/>
</svg>
